<?xml version="1.0" encoding="utf-8" standalone="no"?>
<!DOCTYPE svg PUBLIC "-//W3C//DTD SVG 1.1//EN"
  "http://www.w3.org/Graphics/SVG/1.1/DTD/svg11.dtd">
<svg xmlns:xlink="http://www.w3.org/1999/xlink" width="720pt" height="432pt" viewBox="0 0 720 432" xmlns="http://www.w3.org/2000/svg" version="1.1">
 <metadata>
  <rdf:RDF xmlns:dc="http://purl.org/dc/elements/1.1/" xmlns:cc="http://creativecommons.org/ns#" xmlns:rdf="http://www.w3.org/1999/02/22-rdf-syntax-ns#">
   <cc:Work>
    <dc:type rdf:resource="http://purl.org/dc/dcmitype/StillImage"/>
    <dc:date>2026-06-02T10:00:50.826872</dc:date>
    <dc:format>image/svg+xml</dc:format>
    <dc:creator>
     <cc:Agent>
      <dc:title>Matplotlib v3.10.9, https://matplotlib.org/</dc:title>
     </cc:Agent>
    </dc:creator>
   </cc:Work>
  </rdf:RDF>
 </metadata>
 <defs>
  <style type="text/css">*{stroke-linejoin: round; stroke-linecap: butt}</style>
 </defs>
 <g id="figure_1">
  <g id="patch_1">
   <path d="M 0 432 
L 720 432 
L 720 0 
L 0 0 
z
" style="fill: #ffffff"/>
  </g>
  <g id="axes_1">
   <g id="patch_2">
    <path d="M 56.09 193.179355 
L 709.2 193.179355 
L 709.2 26.88 
L 56.09 26.88 
z
" style="fill: #ffffff"/>
   </g>
   <g id="matplotlib.axis_1">
    <g id="xtick_1">
     <g id="line2d_1">
      <defs>
       <path id="m9996c45564" d="M 0 0 
L 0 3.5 
" style="stroke: #000000; stroke-width: 0.8"/>
      </defs>
      <g>
       <use xlink:href="#m9996c45564" x="56.09" y="193.179355" style="stroke: #000000; stroke-width: 0.8"/>
      </g>
     </g>
    </g>
    <g id="xtick_2">
     <g id="line2d_2">
      <g>
       <use xlink:href="#m9996c45564" x="156.568462" y="193.179355" style="stroke: #000000; stroke-width: 0.8"/>
      </g>
     </g>
    </g>
    <g id="xtick_3">
     <g id="line2d_3">
      <g>
       <use xlink:href="#m9996c45564" x="257.046923" y="193.179355" style="stroke: #000000; stroke-width: 0.8"/>
      </g>
     </g>
    </g>
    <g id="xtick_4">
     <g id="line2d_4">
      <g>
       <use xlink:href="#m9996c45564" x="357.525385" y="193.179355" style="stroke: #000000; stroke-width: 0.8"/>
      </g>
     </g>
    </g>
    <g id="xtick_5">
     <g id="line2d_5">
      <g>
       <use xlink:href="#m9996c45564" x="458.003846" y="193.179355" style="stroke: #000000; stroke-width: 0.8"/>
      </g>
     </g>
    </g>
    <g id="xtick_6">
     <g id="line2d_6">
      <g>
       <use xlink:href="#m9996c45564" x="558.482308" y="193.179355" style="stroke: #000000; stroke-width: 0.8"/>
      </g>
     </g>
    </g>
    <g id="xtick_7">
     <g id="line2d_7">
      <g>
       <use xlink:href="#m9996c45564" x="658.960769" y="193.179355" style="stroke: #000000; stroke-width: 0.8"/>
      </g>
     </g>
    </g>
   </g>
   <g id="matplotlib.axis_2">
    <g id="ytick_1">
     <g id="line2d_8">
      <path d="M 56.09 190.497107 
L 709.2 190.497107 
" clip-path="url(#pfd11c09a17)" style="fill: none; stroke: #b0b0b0; stroke-opacity: 0.25; stroke-width: 0.8; stroke-linecap: square"/>
     </g>
     <g id="line2d_9">
      <defs>
       <path id="mb93b9de399" d="M 0 0 
L -3.5 0 
" style="stroke: #000000; stroke-width: 0.8"/>
      </defs>
      <g>
       <use xlink:href="#mb93b9de399" x="56.09" y="190.497107" style="stroke: #000000; stroke-width: 0.8"/>
      </g>
     </g>
     <g id="text_1">
      <!-- −0.5 -->
      <g transform="translate(24.807188 194.296326) scale(0.1 -0.1)">
       <defs>
        <path id="DejaVuSans-2212" d="M 678 2272 
L 4684 2272 
L 4684 1741 
L 678 1741 
L 678 2272 
z
" transform="scale(0.015625)"/>
        <path id="DejaVuSans-30" d="M 2034 4250 
Q 1547 4250 1301 3770 
Q 1056 3291 1056 2328 
Q 1056 1369 1301 889 
Q 1547 409 2034 409 
Q 2525 409 2770 889 
Q 3016 1369 3016 2328 
Q 3016 3291 2770 3770 
Q 2525 4250 2034 4250 
z
M 2034 4750 
Q 2819 4750 3233 4129 
Q 3647 3509 3647 2328 
Q 3647 1150 3233 529 
Q 2819 -91 2034 -91 
Q 1250 -91 836 529 
Q 422 1150 422 2328 
Q 422 3509 836 4129 
Q 1250 4750 2034 4750 
z
" transform="scale(0.015625)"/>
        <path id="DejaVuSans-2e" d="M 684 794 
L 1344 794 
L 1344 0 
L 684 0 
L 684 794 
z
" transform="scale(0.015625)"/>
        <path id="DejaVuSans-35" d="M 691 4666 
L 3169 4666 
L 3169 4134 
L 1269 4134 
L 1269 2991 
Q 1406 3038 1543 3061 
Q 1681 3084 1819 3084 
Q 2600 3084 3056 2656 
Q 3513 2228 3513 1497 
Q 3513 744 3044 326 
Q 2575 -91 1722 -91 
Q 1428 -91 1123 -41 
Q 819 9 494 109 
L 494 744 
Q 775 591 1075 516 
Q 1375 441 1709 441 
Q 2250 441 2565 725 
Q 2881 1009 2881 1497 
Q 2881 1984 2565 2268 
Q 2250 2553 1709 2553 
Q 1456 2553 1204 2497 
Q 953 2441 691 2322 
L 691 4666 
z
" transform="scale(0.015625)"/>
       </defs>
       <use xlink:href="#DejaVuSans-2212"/>
       <use xlink:href="#DejaVuSans-30" transform="translate(83.789062 0)"/>
       <use xlink:href="#DejaVuSans-2e" transform="translate(147.412109 0)"/>
       <use xlink:href="#DejaVuSans-35" transform="translate(179.199219 0)"/>
      </g>
     </g>
    </g>
    <g id="ytick_2">
     <g id="line2d_10">
      <path d="M 56.09 159.285498 
L 709.2 159.285498 
" clip-path="url(#pfd11c09a17)" style="fill: none; stroke: #b0b0b0; stroke-opacity: 0.25; stroke-width: 0.8; stroke-linecap: square"/>
     </g>
     <g id="line2d_11">
      <g>
       <use xlink:href="#mb93b9de399" x="56.09" y="159.285498" style="stroke: #000000; stroke-width: 0.8"/>
      </g>
     </g>
     <g id="text_2">
      <!-- −0.4 -->
      <g transform="translate(24.807188 163.084717) scale(0.1 -0.1)">
       <defs>
        <path id="DejaVuSans-34" d="M 2419 4116 
L 825 1625 
L 2419 1625 
L 2419 4116 
z
M 2253 4666 
L 3047 4666 
L 3047 1625 
L 3713 1625 
L 3713 1100 
L 3047 1100 
L 3047 0 
L 2419 0 
L 2419 1100 
L 313 1100 
L 313 1709 
L 2253 4666 
z
" transform="scale(0.015625)"/>
       </defs>
       <use xlink:href="#DejaVuSans-2212"/>
       <use xlink:href="#DejaVuSans-30" transform="translate(83.789062 0)"/>
       <use xlink:href="#DejaVuSans-2e" transform="translate(147.412109 0)"/>
       <use xlink:href="#DejaVuSans-34" transform="translate(179.199219 0)"/>
      </g>
     </g>
    </g>
    <g id="ytick_3">
     <g id="line2d_12">
      <path d="M 56.09 128.073889 
L 709.2 128.073889 
" clip-path="url(#pfd11c09a17)" style="fill: none; stroke: #b0b0b0; stroke-opacity: 0.25; stroke-width: 0.8; stroke-linecap: square"/>
     </g>
     <g id="line2d_13">
      <g>
       <use xlink:href="#mb93b9de399" x="56.09" y="128.073889" style="stroke: #000000; stroke-width: 0.8"/>
      </g>
     </g>
     <g id="text_3">
      <!-- −0.3 -->
      <g transform="translate(24.807188 131.873108) scale(0.1 -0.1)">
       <defs>
        <path id="DejaVuSans-33" d="M 2597 2516 
Q 3050 2419 3304 2112 
Q 3559 1806 3559 1356 
Q 3559 666 3084 287 
Q 2609 -91 1734 -91 
Q 1441 -91 1130 -33 
Q 819 25 488 141 
L 488 750 
Q 750 597 1062 519 
Q 1375 441 1716 441 
Q 2309 441 2620 675 
Q 2931 909 2931 1356 
Q 2931 1769 2642 2001 
Q 2353 2234 1838 2234 
L 1294 2234 
L 1294 2753 
L 1863 2753 
Q 2328 2753 2575 2939 
Q 2822 3125 2822 3475 
Q 2822 3834 2567 4026 
Q 2313 4219 1838 4219 
Q 1578 4219 1281 4162 
Q 984 4106 628 3988 
L 628 4550 
Q 988 4650 1302 4700 
Q 1616 4750 1894 4750 
Q 2613 4750 3031 4423 
Q 3450 4097 3450 3541 
Q 3450 3153 3228 2886 
Q 3006 2619 2597 2516 
z
" transform="scale(0.015625)"/>
       </defs>
       <use xlink:href="#DejaVuSans-2212"/>
       <use xlink:href="#DejaVuSans-30" transform="translate(83.789062 0)"/>
       <use xlink:href="#DejaVuSans-2e" transform="translate(147.412109 0)"/>
       <use xlink:href="#DejaVuSans-33" transform="translate(179.199219 0)"/>
      </g>
     </g>
    </g>
    <g id="ytick_4">
     <g id="line2d_14">
      <path d="M 56.09 96.86228 
L 709.2 96.86228 
" clip-path="url(#pfd11c09a17)" style="fill: none; stroke: #b0b0b0; stroke-opacity: 0.25; stroke-width: 0.8; stroke-linecap: square"/>
     </g>
     <g id="line2d_15">
      <g>
       <use xlink:href="#mb93b9de399" x="56.09" y="96.86228" style="stroke: #000000; stroke-width: 0.8"/>
      </g>
     </g>
     <g id="text_4">
      <!-- −0.2 -->
      <g transform="translate(24.807188 100.661499) scale(0.1 -0.1)">
       <defs>
        <path id="DejaVuSans-32" d="M 1228 531 
L 3431 531 
L 3431 0 
L 469 0 
L 469 531 
Q 828 903 1448 1529 
Q 2069 2156 2228 2338 
Q 2531 2678 2651 2914 
Q 2772 3150 2772 3378 
Q 2772 3750 2511 3984 
Q 2250 4219 1831 4219 
Q 1534 4219 1204 4116 
Q 875 4013 500 3803 
L 500 4441 
Q 881 4594 1212 4672 
Q 1544 4750 1819 4750 
Q 2544 4750 2975 4387 
Q 3406 4025 3406 3419 
Q 3406 3131 3298 2873 
Q 3191 2616 2906 2266 
Q 2828 2175 2409 1742 
Q 1991 1309 1228 531 
z
" transform="scale(0.015625)"/>
       </defs>
       <use xlink:href="#DejaVuSans-2212"/>
       <use xlink:href="#DejaVuSans-30" transform="translate(83.789062 0)"/>
       <use xlink:href="#DejaVuSans-2e" transform="translate(147.412109 0)"/>
       <use xlink:href="#DejaVuSans-32" transform="translate(179.199219 0)"/>
      </g>
     </g>
    </g>
    <g id="ytick_5">
     <g id="line2d_16">
      <path d="M 56.09 65.650671 
L 709.2 65.650671 
" clip-path="url(#pfd11c09a17)" style="fill: none; stroke: #b0b0b0; stroke-opacity: 0.25; stroke-width: 0.8; stroke-linecap: square"/>
     </g>
     <g id="line2d_17">
      <g>
       <use xlink:href="#mb93b9de399" x="56.09" y="65.650671" style="stroke: #000000; stroke-width: 0.8"/>
      </g>
     </g>
     <g id="text_5">
      <!-- −0.1 -->
      <g transform="translate(24.807188 69.449889) scale(0.1 -0.1)">
       <defs>
        <path id="DejaVuSans-31" d="M 794 531 
L 1825 531 
L 1825 4091 
L 703 3866 
L 703 4441 
L 1819 4666 
L 2450 4666 
L 2450 531 
L 3481 531 
L 3481 0 
L 794 0 
L 794 531 
z
" transform="scale(0.015625)"/>
       </defs>
       <use xlink:href="#DejaVuSans-2212"/>
       <use xlink:href="#DejaVuSans-30" transform="translate(83.789062 0)"/>
       <use xlink:href="#DejaVuSans-2e" transform="translate(147.412109 0)"/>
       <use xlink:href="#DejaVuSans-31" transform="translate(179.199219 0)"/>
      </g>
     </g>
    </g>
    <g id="ytick_6">
     <g id="line2d_18">
      <path d="M 56.09 34.439062 
L 709.2 34.439062 
" clip-path="url(#pfd11c09a17)" style="fill: none; stroke: #b0b0b0; stroke-opacity: 0.25; stroke-width: 0.8; stroke-linecap: square"/>
     </g>
     <g id="line2d_19">
      <g>
       <use xlink:href="#mb93b9de399" x="56.09" y="34.439062" style="stroke: #000000; stroke-width: 0.8"/>
      </g>
     </g>
     <g id="text_6">
      <!-- 0.0 -->
      <g transform="translate(33.186875 38.23828) scale(0.1 -0.1)">
       <use xlink:href="#DejaVuSans-30"/>
       <use xlink:href="#DejaVuSans-2e" transform="translate(63.623047 0)"/>
       <use xlink:href="#DejaVuSans-30" transform="translate(95.410156 0)"/>
      </g>
     </g>
    </g>
    <g id="text_7">
     <!-- stick value -->
     <g transform="translate(18.7275 136.87499) rotate(-90) scale(0.1 -0.1)">
      <defs>
       <path id="DejaVuSans-73" d="M 2834 3397 
L 2834 2853 
Q 2591 2978 2328 3040 
Q 2066 3103 1784 3103 
Q 1356 3103 1142 2972 
Q 928 2841 928 2578 
Q 928 2378 1081 2264 
Q 1234 2150 1697 2047 
L 1894 2003 
Q 2506 1872 2764 1633 
Q 3022 1394 3022 966 
Q 3022 478 2636 193 
Q 2250 -91 1575 -91 
Q 1294 -91 989 -36 
Q 684 19 347 128 
L 347 722 
Q 666 556 975 473 
Q 1284 391 1588 391 
Q 1994 391 2212 530 
Q 2431 669 2431 922 
Q 2431 1156 2273 1281 
Q 2116 1406 1581 1522 
L 1381 1569 
Q 847 1681 609 1914 
Q 372 2147 372 2553 
Q 372 3047 722 3315 
Q 1072 3584 1716 3584 
Q 2034 3584 2315 3537 
Q 2597 3491 2834 3397 
z
" transform="scale(0.015625)"/>
       <path id="DejaVuSans-74" d="M 1172 4494 
L 1172 3500 
L 2356 3500 
L 2356 3053 
L 1172 3053 
L 1172 1153 
Q 1172 725 1289 603 
Q 1406 481 1766 481 
L 2356 481 
L 2356 0 
L 1766 0 
Q 1100 0 847 248 
Q 594 497 594 1153 
L 594 3053 
L 172 3053 
L 172 3500 
L 594 3500 
L 594 4494 
L 1172 4494 
z
" transform="scale(0.015625)"/>
       <path id="DejaVuSans-69" d="M 603 3500 
L 1178 3500 
L 1178 0 
L 603 0 
L 603 3500 
z
M 603 4863 
L 1178 4863 
L 1178 4134 
L 603 4134 
L 603 4863 
z
" transform="scale(0.015625)"/>
       <path id="DejaVuSans-63" d="M 3122 3366 
L 3122 2828 
Q 2878 2963 2633 3030 
Q 2388 3097 2138 3097 
Q 1578 3097 1268 2742 
Q 959 2388 959 1747 
Q 959 1106 1268 751 
Q 1578 397 2138 397 
Q 2388 397 2633 464 
Q 2878 531 3122 666 
L 3122 134 
Q 2881 22 2623 -34 
Q 2366 -91 2075 -91 
Q 1284 -91 818 406 
Q 353 903 353 1747 
Q 353 2603 823 3093 
Q 1294 3584 2113 3584 
Q 2378 3584 2631 3529 
Q 2884 3475 3122 3366 
z
" transform="scale(0.015625)"/>
       <path id="DejaVuSans-6b" d="M 581 4863 
L 1159 4863 
L 1159 1991 
L 2875 3500 
L 3609 3500 
L 1753 1863 
L 3688 0 
L 2938 0 
L 1159 1709 
L 1159 0 
L 581 0 
L 581 4863 
z
" transform="scale(0.015625)"/>
       <path id="DejaVuSans-20" transform="scale(0.015625)"/>
       <path id="DejaVuSans-76" d="M 191 3500 
L 800 3500 
L 1894 563 
L 2988 3500 
L 3597 3500 
L 2284 0 
L 1503 0 
L 191 3500 
z
" transform="scale(0.015625)"/>
       <path id="DejaVuSans-61" d="M 2194 1759 
Q 1497 1759 1228 1600 
Q 959 1441 959 1056 
Q 959 750 1161 570 
Q 1363 391 1709 391 
Q 2188 391 2477 730 
Q 2766 1069 2766 1631 
L 2766 1759 
L 2194 1759 
z
M 3341 1997 
L 3341 0 
L 2766 0 
L 2766 531 
Q 2569 213 2275 61 
Q 1981 -91 1556 -91 
Q 1019 -91 701 211 
Q 384 513 384 1019 
Q 384 1609 779 1909 
Q 1175 2209 1959 2209 
L 2766 2209 
L 2766 2266 
Q 2766 2663 2505 2880 
Q 2244 3097 1772 3097 
Q 1472 3097 1187 3025 
Q 903 2953 641 2809 
L 641 3341 
Q 956 3463 1253 3523 
Q 1550 3584 1831 3584 
Q 2591 3584 2966 3190 
Q 3341 2797 3341 1997 
z
" transform="scale(0.015625)"/>
       <path id="DejaVuSans-6c" d="M 603 4863 
L 1178 4863 
L 1178 0 
L 603 0 
L 603 4863 
z
" transform="scale(0.015625)"/>
       <path id="DejaVuSans-75" d="M 544 1381 
L 544 3500 
L 1119 3500 
L 1119 1403 
Q 1119 906 1312 657 
Q 1506 409 1894 409 
Q 2359 409 2629 706 
Q 2900 1003 2900 1516 
L 2900 3500 
L 3475 3500 
L 3475 0 
L 2900 0 
L 2900 538 
Q 2691 219 2414 64 
Q 2138 -91 1772 -91 
Q 1169 -91 856 284 
Q 544 659 544 1381 
z
M 1991 3584 
L 1991 3584 
z
" transform="scale(0.015625)"/>
       <path id="DejaVuSans-65" d="M 3597 1894 
L 3597 1613 
L 953 1613 
Q 991 1019 1311 708 
Q 1631 397 2203 397 
Q 2534 397 2845 478 
Q 3156 559 3463 722 
L 3463 178 
Q 3153 47 2828 -22 
Q 2503 -91 2169 -91 
Q 1331 -91 842 396 
Q 353 884 353 1716 
Q 353 2575 817 3079 
Q 1281 3584 2069 3584 
Q 2775 3584 3186 3129 
Q 3597 2675 3597 1894 
z
M 3022 2063 
Q 3016 2534 2758 2815 
Q 2500 3097 2075 3097 
Q 1594 3097 1305 2825 
Q 1016 2553 972 2059 
L 3022 2063 
z
" transform="scale(0.015625)"/>
      </defs>
      <use xlink:href="#DejaVuSans-73"/>
      <use xlink:href="#DejaVuSans-74" transform="translate(52.099609 0)"/>
      <use xlink:href="#DejaVuSans-69" transform="translate(91.308594 0)"/>
      <use xlink:href="#DejaVuSans-63" transform="translate(119.091797 0)"/>
      <use xlink:href="#DejaVuSans-6b" transform="translate(174.072266 0)"/>
      <use xlink:href="#DejaVuSans-20" transform="translate(231.982422 0)"/>
      <use xlink:href="#DejaVuSans-76" transform="translate(263.769531 0)"/>
      <use xlink:href="#DejaVuSans-61" transform="translate(322.949219 0)"/>
      <use xlink:href="#DejaVuSans-6c" transform="translate(384.228516 0)"/>
      <use xlink:href="#DejaVuSans-75" transform="translate(412.011719 0)"/>
      <use xlink:href="#DejaVuSans-65" transform="translate(475.390625 0)"/>
     </g>
    </g>
   </g>
   <g id="line2d_20">
    <path d="M 56.09 34.439062 
L 205.802908 34.439062 
L 206.807692 112.468084 
L 230.922523 112.468084 
L 231.927308 185.620293 
L 306.281369 185.620293 
L 307.286154 34.439062 
L 709.2 34.439062 
L 709.2 34.439062 
" clip-path="url(#pfd11c09a17)" style="fill: none; stroke: #4c78a8; stroke-width: 2; stroke-linecap: square"/>
   </g>
   <g id="line2d_21">
    <path d="M 56.09 34.439062 
L 709.2 34.439062 
L 709.2 34.439062 
" clip-path="url(#pfd11c09a17)" style="fill: none; stroke: #f58518; stroke-opacity: 0.75; stroke-width: 1.2; stroke-linecap: square"/>
   </g>
   <g id="line2d_22">
    <path d="M 307.286154 193.179355 
L 307.286154 26.88 
" clip-path="url(#pfd11c09a17)" style="fill: none; stroke-dasharray: 3.7,1.6; stroke-dashoffset: 0; stroke: #222222"/>
   </g>
   <g id="patch_3">
    <path d="M 56.09 193.179355 
L 56.09 26.88 
" style="fill: none; stroke: #000000; stroke-width: 0.8; stroke-linejoin: miter; stroke-linecap: square"/>
   </g>
   <g id="patch_4">
    <path d="M 709.2 193.179355 
L 709.2 26.88 
" style="fill: none; stroke: #000000; stroke-width: 0.8; stroke-linejoin: miter; stroke-linecap: square"/>
   </g>
   <g id="patch_5">
    <path d="M 56.09 193.179355 
L 709.2 193.179355 
" style="fill: none; stroke: #000000; stroke-width: 0.8; stroke-linejoin: miter; stroke-linecap: square"/>
   </g>
   <g id="patch_6">
    <path d="M 56.09 26.88 
L 709.2 26.88 
" style="fill: none; stroke: #000000; stroke-width: 0.8; stroke-linejoin: miter; stroke-linecap: square"/>
   </g>
   <g id="text_8">
    <!-- Minimal clean trigger: four-cell roll pulse, then neutral -->
    <g transform="translate(220.872812 20.88) scale(0.12 -0.12)">
     <defs>
      <path id="DejaVuSans-4d" d="M 628 4666 
L 1569 4666 
L 2759 1491 
L 3956 4666 
L 4897 4666 
L 4897 0 
L 4281 0 
L 4281 4097 
L 3078 897 
L 2444 897 
L 1241 4097 
L 1241 0 
L 628 0 
L 628 4666 
z
" transform="scale(0.015625)"/>
      <path id="DejaVuSans-6e" d="M 3513 2113 
L 3513 0 
L 2938 0 
L 2938 2094 
Q 2938 2591 2744 2837 
Q 2550 3084 2163 3084 
Q 1697 3084 1428 2787 
Q 1159 2491 1159 1978 
L 1159 0 
L 581 0 
L 581 3500 
L 1159 3500 
L 1159 2956 
Q 1366 3272 1645 3428 
Q 1925 3584 2291 3584 
Q 2894 3584 3203 3211 
Q 3513 2838 3513 2113 
z
" transform="scale(0.015625)"/>
      <path id="DejaVuSans-6d" d="M 3328 2828 
Q 3544 3216 3844 3400 
Q 4144 3584 4550 3584 
Q 5097 3584 5394 3201 
Q 5691 2819 5691 2113 
L 5691 0 
L 5113 0 
L 5113 2094 
Q 5113 2597 4934 2840 
Q 4756 3084 4391 3084 
Q 3944 3084 3684 2787 
Q 3425 2491 3425 1978 
L 3425 0 
L 2847 0 
L 2847 2094 
Q 2847 2600 2669 2842 
Q 2491 3084 2119 3084 
Q 1678 3084 1418 2786 
Q 1159 2488 1159 1978 
L 1159 0 
L 581 0 
L 581 3500 
L 1159 3500 
L 1159 2956 
Q 1356 3278 1631 3431 
Q 1906 3584 2284 3584 
Q 2666 3584 2933 3390 
Q 3200 3197 3328 2828 
z
" transform="scale(0.015625)"/>
      <path id="DejaVuSans-72" d="M 2631 2963 
Q 2534 3019 2420 3045 
Q 2306 3072 2169 3072 
Q 1681 3072 1420 2755 
Q 1159 2438 1159 1844 
L 1159 0 
L 581 0 
L 581 3500 
L 1159 3500 
L 1159 2956 
Q 1341 3275 1631 3429 
Q 1922 3584 2338 3584 
Q 2397 3584 2469 3576 
Q 2541 3569 2628 3553 
L 2631 2963 
z
" transform="scale(0.015625)"/>
      <path id="DejaVuSans-67" d="M 2906 1791 
Q 2906 2416 2648 2759 
Q 2391 3103 1925 3103 
Q 1463 3103 1205 2759 
Q 947 2416 947 1791 
Q 947 1169 1205 825 
Q 1463 481 1925 481 
Q 2391 481 2648 825 
Q 2906 1169 2906 1791 
z
M 3481 434 
Q 3481 -459 3084 -895 
Q 2688 -1331 1869 -1331 
Q 1566 -1331 1297 -1286 
Q 1028 -1241 775 -1147 
L 775 -588 
Q 1028 -725 1275 -790 
Q 1522 -856 1778 -856 
Q 2344 -856 2625 -561 
Q 2906 -266 2906 331 
L 2906 616 
Q 2728 306 2450 153 
Q 2172 0 1784 0 
Q 1141 0 747 490 
Q 353 981 353 1791 
Q 353 2603 747 3093 
Q 1141 3584 1784 3584 
Q 2172 3584 2450 3431 
Q 2728 3278 2906 2969 
L 2906 3500 
L 3481 3500 
L 3481 434 
z
" transform="scale(0.015625)"/>
      <path id="DejaVuSans-3a" d="M 750 794 
L 1409 794 
L 1409 0 
L 750 0 
L 750 794 
z
M 750 3309 
L 1409 3309 
L 1409 2516 
L 750 2516 
L 750 3309 
z
" transform="scale(0.015625)"/>
      <path id="DejaVuSans-66" d="M 2375 4863 
L 2375 4384 
L 1825 4384 
Q 1516 4384 1395 4259 
Q 1275 4134 1275 3809 
L 1275 3500 
L 2222 3500 
L 2222 3053 
L 1275 3053 
L 1275 0 
L 697 0 
L 697 3053 
L 147 3053 
L 147 3500 
L 697 3500 
L 697 3744 
Q 697 4328 969 4595 
Q 1241 4863 1831 4863 
L 2375 4863 
z
" transform="scale(0.015625)"/>
      <path id="DejaVuSans-6f" d="M 1959 3097 
Q 1497 3097 1228 2736 
Q 959 2375 959 1747 
Q 959 1119 1226 758 
Q 1494 397 1959 397 
Q 2419 397 2687 759 
Q 2956 1122 2956 1747 
Q 2956 2369 2687 2733 
Q 2419 3097 1959 3097 
z
M 1959 3584 
Q 2709 3584 3137 3096 
Q 3566 2609 3566 1747 
Q 3566 888 3137 398 
Q 2709 -91 1959 -91 
Q 1206 -91 779 398 
Q 353 888 353 1747 
Q 353 2609 779 3096 
Q 1206 3584 1959 3584 
z
" transform="scale(0.015625)"/>
      <path id="DejaVuSans-2d" d="M 313 2009 
L 1997 2009 
L 1997 1497 
L 313 1497 
L 313 2009 
z
" transform="scale(0.015625)"/>
      <path id="DejaVuSans-70" d="M 1159 525 
L 1159 -1331 
L 581 -1331 
L 581 3500 
L 1159 3500 
L 1159 2969 
Q 1341 3281 1617 3432 
Q 1894 3584 2278 3584 
Q 2916 3584 3314 3078 
Q 3713 2572 3713 1747 
Q 3713 922 3314 415 
Q 2916 -91 2278 -91 
Q 1894 -91 1617 61 
Q 1341 213 1159 525 
z
M 3116 1747 
Q 3116 2381 2855 2742 
Q 2594 3103 2138 3103 
Q 1681 3103 1420 2742 
Q 1159 2381 1159 1747 
Q 1159 1113 1420 752 
Q 1681 391 2138 391 
Q 2594 391 2855 752 
Q 3116 1113 3116 1747 
z
" transform="scale(0.015625)"/>
      <path id="DejaVuSans-2c" d="M 750 794 
L 1409 794 
L 1409 256 
L 897 -744 
L 494 -744 
L 750 256 
L 750 794 
z
" transform="scale(0.015625)"/>
      <path id="DejaVuSans-68" d="M 3513 2113 
L 3513 0 
L 2938 0 
L 2938 2094 
Q 2938 2591 2744 2837 
Q 2550 3084 2163 3084 
Q 1697 3084 1428 2787 
Q 1159 2491 1159 1978 
L 1159 0 
L 581 0 
L 581 4863 
L 1159 4863 
L 1159 2956 
Q 1366 3272 1645 3428 
Q 1925 3584 2291 3584 
Q 2894 3584 3203 3211 
Q 3513 2838 3513 2113 
z
" transform="scale(0.015625)"/>
     </defs>
     <use xlink:href="#DejaVuSans-4d"/>
     <use xlink:href="#DejaVuSans-69" transform="translate(86.279297 0)"/>
     <use xlink:href="#DejaVuSans-6e" transform="translate(114.0625 0)"/>
     <use xlink:href="#DejaVuSans-69" transform="translate(177.441406 0)"/>
     <use xlink:href="#DejaVuSans-6d" transform="translate(205.224609 0)"/>
     <use xlink:href="#DejaVuSans-61" transform="translate(302.636719 0)"/>
     <use xlink:href="#DejaVuSans-6c" transform="translate(363.916016 0)"/>
     <use xlink:href="#DejaVuSans-20" transform="translate(391.699219 0)"/>
     <use xlink:href="#DejaVuSans-63" transform="translate(423.486328 0)"/>
     <use xlink:href="#DejaVuSans-6c" transform="translate(478.466797 0)"/>
     <use xlink:href="#DejaVuSans-65" transform="translate(506.25 0)"/>
     <use xlink:href="#DejaVuSans-61" transform="translate(567.773438 0)"/>
     <use xlink:href="#DejaVuSans-6e" transform="translate(629.052734 0)"/>
     <use xlink:href="#DejaVuSans-20" transform="translate(692.431641 0)"/>
     <use xlink:href="#DejaVuSans-74" transform="translate(724.21875 0)"/>
     <use xlink:href="#DejaVuSans-72" transform="translate(763.427734 0)"/>
     <use xlink:href="#DejaVuSans-69" transform="translate(804.541016 0)"/>
     <use xlink:href="#DejaVuSans-67" transform="translate(832.324219 0)"/>
     <use xlink:href="#DejaVuSans-67" transform="translate(895.800781 0)"/>
     <use xlink:href="#DejaVuSans-65" transform="translate(959.277344 0)"/>
     <use xlink:href="#DejaVuSans-72" transform="translate(1020.800781 0)"/>
     <use xlink:href="#DejaVuSans-3a" transform="translate(1060.164062 0)"/>
     <use xlink:href="#DejaVuSans-20" transform="translate(1093.855469 0)"/>
     <use xlink:href="#DejaVuSans-66" transform="translate(1125.642578 0)"/>
     <use xlink:href="#DejaVuSans-6f" transform="translate(1160.847656 0)"/>
     <use xlink:href="#DejaVuSans-75" transform="translate(1222.029297 0)"/>
     <use xlink:href="#DejaVuSans-72" transform="translate(1285.408203 0)"/>
     <use xlink:href="#DejaVuSans-2d" transform="translate(1320.146484 0)"/>
     <use xlink:href="#DejaVuSans-63" transform="translate(1356.230469 0)"/>
     <use xlink:href="#DejaVuSans-65" transform="translate(1411.210938 0)"/>
     <use xlink:href="#DejaVuSans-6c" transform="translate(1472.734375 0)"/>
     <use xlink:href="#DejaVuSans-6c" transform="translate(1500.517578 0)"/>
     <use xlink:href="#DejaVuSans-20" transform="translate(1528.300781 0)"/>
     <use xlink:href="#DejaVuSans-72" transform="translate(1560.087891 0)"/>
     <use xlink:href="#DejaVuSans-6f" transform="translate(1598.951172 0)"/>
     <use xlink:href="#DejaVuSans-6c" transform="translate(1660.132812 0)"/>
     <use xlink:href="#DejaVuSans-6c" transform="translate(1687.916016 0)"/>
     <use xlink:href="#DejaVuSans-20" transform="translate(1715.699219 0)"/>
     <use xlink:href="#DejaVuSans-70" transform="translate(1747.486328 0)"/>
     <use xlink:href="#DejaVuSans-75" transform="translate(1810.962891 0)"/>
     <use xlink:href="#DejaVuSans-6c" transform="translate(1874.341797 0)"/>
     <use xlink:href="#DejaVuSans-73" transform="translate(1902.125 0)"/>
     <use xlink:href="#DejaVuSans-65" transform="translate(1954.224609 0)"/>
     <use xlink:href="#DejaVuSans-2c" transform="translate(2015.748047 0)"/>
     <use xlink:href="#DejaVuSans-20" transform="translate(2047.535156 0)"/>
     <use xlink:href="#DejaVuSans-74" transform="translate(2079.322266 0)"/>
     <use xlink:href="#DejaVuSans-68" transform="translate(2118.53125 0)"/>
     <use xlink:href="#DejaVuSans-65" transform="translate(2181.910156 0)"/>
     <use xlink:href="#DejaVuSans-6e" transform="translate(2243.433594 0)"/>
     <use xlink:href="#DejaVuSans-20" transform="translate(2306.8125 0)"/>
     <use xlink:href="#DejaVuSans-6e" transform="translate(2338.599609 0)"/>
     <use xlink:href="#DejaVuSans-65" transform="translate(2401.978516 0)"/>
     <use xlink:href="#DejaVuSans-75" transform="translate(2463.501953 0)"/>
     <use xlink:href="#DejaVuSans-74" transform="translate(2526.880859 0)"/>
     <use xlink:href="#DejaVuSans-72" transform="translate(2566.089844 0)"/>
     <use xlink:href="#DejaVuSans-61" transform="translate(2607.203125 0)"/>
     <use xlink:href="#DejaVuSans-6c" transform="translate(2668.482422 0)"/>
    </g>
   </g>
   <g id="legend_1">
    <g id="patch_7">
     <path d="M 61.69 68.5075 
L 158.1875 68.5075 
Q 159.7875 68.5075 159.7875 66.9075 
L 159.7875 32.48 
Q 159.7875 30.88 158.1875 30.88 
L 61.69 30.88 
Q 60.09 30.88 60.09 32.48 
L 60.09 66.9075 
Q 60.09 68.5075 61.69 68.5075 
z
" style="fill: #ffffff; opacity: 0.8; stroke: #cccccc; stroke-linejoin: miter"/>
    </g>
    <g id="line2d_23">
     <path d="M 63.29 37.35875 
L 71.29 37.35875 
L 79.29 37.35875 
" style="fill: none; stroke: #4c78a8; stroke-width: 2; stroke-linecap: square"/>
    </g>
    <g id="text_9">
     <!-- roll -->
     <g transform="translate(85.69 40.15875) scale(0.08 -0.08)">
      <use xlink:href="#DejaVuSans-72"/>
      <use xlink:href="#DejaVuSans-6f" transform="translate(38.863281 0)"/>
      <use xlink:href="#DejaVuSans-6c" transform="translate(100.044922 0)"/>
      <use xlink:href="#DejaVuSans-6c" transform="translate(127.828125 0)"/>
     </g>
    </g>
    <g id="line2d_24">
     <path d="M 63.29 49.10125 
L 71.29 49.10125 
L 79.29 49.10125 
" style="fill: none; stroke: #f58518; stroke-opacity: 0.75; stroke-width: 1.2; stroke-linecap: square"/>
    </g>
    <g id="text_10">
     <!-- pitch -->
     <g transform="translate(85.69 51.90125) scale(0.08 -0.08)">
      <use xlink:href="#DejaVuSans-70"/>
      <use xlink:href="#DejaVuSans-69" transform="translate(63.476562 0)"/>
      <use xlink:href="#DejaVuSans-74" transform="translate(91.259766 0)"/>
      <use xlink:href="#DejaVuSans-63" transform="translate(130.46875 0)"/>
      <use xlink:href="#DejaVuSans-68" transform="translate(185.449219 0)"/>
     </g>
    </g>
    <g id="line2d_25">
     <path d="M 63.29 60.84375 
L 71.29 60.84375 
L 79.29 60.84375 
" style="fill: none; stroke-dasharray: 3.7,1.6; stroke-dashoffset: 0; stroke: #222222"/>
    </g>
    <g id="text_11">
     <!-- release to neutral -->
     <g transform="translate(85.69 63.64375) scale(0.08 -0.08)">
      <use xlink:href="#DejaVuSans-72"/>
      <use xlink:href="#DejaVuSans-65" transform="translate(38.863281 0)"/>
      <use xlink:href="#DejaVuSans-6c" transform="translate(100.386719 0)"/>
      <use xlink:href="#DejaVuSans-65" transform="translate(128.169922 0)"/>
      <use xlink:href="#DejaVuSans-61" transform="translate(189.693359 0)"/>
      <use xlink:href="#DejaVuSans-73" transform="translate(250.972656 0)"/>
      <use xlink:href="#DejaVuSans-65" transform="translate(303.072266 0)"/>
      <use xlink:href="#DejaVuSans-20" transform="translate(364.595703 0)"/>
      <use xlink:href="#DejaVuSans-74" transform="translate(396.382812 0)"/>
      <use xlink:href="#DejaVuSans-6f" transform="translate(435.591797 0)"/>
      <use xlink:href="#DejaVuSans-20" transform="translate(496.773438 0)"/>
      <use xlink:href="#DejaVuSans-6e" transform="translate(528.560547 0)"/>
      <use xlink:href="#DejaVuSans-65" transform="translate(591.939453 0)"/>
      <use xlink:href="#DejaVuSans-75" transform="translate(653.462891 0)"/>
      <use xlink:href="#DejaVuSans-74" transform="translate(716.841797 0)"/>
      <use xlink:href="#DejaVuSans-72" transform="translate(756.050781 0)"/>
      <use xlink:href="#DejaVuSans-61" transform="translate(797.164062 0)"/>
      <use xlink:href="#DejaVuSans-6c" transform="translate(858.443359 0)"/>
     </g>
    </g>
   </g>
  </g>
  <g id="axes_2">
   <g id="patch_8">
    <path d="M 56.09 390.04 
L 709.2 390.04 
L 709.2 223.740645 
L 56.09 223.740645 
z
" style="fill: #ffffff"/>
   </g>
   <g id="matplotlib.axis_3">
    <g id="xtick_8">
     <g id="line2d_26">
      <g>
       <use xlink:href="#m9996c45564" x="56.09" y="390.04" style="stroke: #000000; stroke-width: 0.8"/>
      </g>
     </g>
     <g id="text_12">
      <!-- 0 -->
      <g transform="translate(52.90875 404.638437) scale(0.1 -0.1)">
       <use xlink:href="#DejaVuSans-30"/>
      </g>
     </g>
    </g>
    <g id="xtick_9">
     <g id="line2d_27">
      <g>
       <use xlink:href="#m9996c45564" x="156.568462" y="390.04" style="stroke: #000000; stroke-width: 0.8"/>
      </g>
     </g>
     <g id="text_13">
      <!-- 2 -->
      <g transform="translate(153.387212 404.638437) scale(0.1 -0.1)">
       <use xlink:href="#DejaVuSans-32"/>
      </g>
     </g>
    </g>
    <g id="xtick_10">
     <g id="line2d_28">
      <g>
       <use xlink:href="#m9996c45564" x="257.046923" y="390.04" style="stroke: #000000; stroke-width: 0.8"/>
      </g>
     </g>
     <g id="text_14">
      <!-- 4 -->
      <g transform="translate(253.865673 404.638437) scale(0.1 -0.1)">
       <use xlink:href="#DejaVuSans-34"/>
      </g>
     </g>
    </g>
    <g id="xtick_11">
     <g id="line2d_29">
      <g>
       <use xlink:href="#m9996c45564" x="357.525385" y="390.04" style="stroke: #000000; stroke-width: 0.8"/>
      </g>
     </g>
     <g id="text_15">
      <!-- 6 -->
      <g transform="translate(354.344135 404.638437) scale(0.1 -0.1)">
       <defs>
        <path id="DejaVuSans-36" d="M 2113 2584 
Q 1688 2584 1439 2293 
Q 1191 2003 1191 1497 
Q 1191 994 1439 701 
Q 1688 409 2113 409 
Q 2538 409 2786 701 
Q 3034 994 3034 1497 
Q 3034 2003 2786 2293 
Q 2538 2584 2113 2584 
z
M 3366 4563 
L 3366 3988 
Q 3128 4100 2886 4159 
Q 2644 4219 2406 4219 
Q 1781 4219 1451 3797 
Q 1122 3375 1075 2522 
Q 1259 2794 1537 2939 
Q 1816 3084 2150 3084 
Q 2853 3084 3261 2657 
Q 3669 2231 3669 1497 
Q 3669 778 3244 343 
Q 2819 -91 2113 -91 
Q 1303 -91 875 529 
Q 447 1150 447 2328 
Q 447 3434 972 4092 
Q 1497 4750 2381 4750 
Q 2619 4750 2861 4703 
Q 3103 4656 3366 4563 
z
" transform="scale(0.015625)"/>
       </defs>
       <use xlink:href="#DejaVuSans-36"/>
      </g>
     </g>
    </g>
    <g id="xtick_12">
     <g id="line2d_30">
      <g>
       <use xlink:href="#m9996c45564" x="458.003846" y="390.04" style="stroke: #000000; stroke-width: 0.8"/>
      </g>
     </g>
     <g id="text_16">
      <!-- 8 -->
      <g transform="translate(454.822596 404.638437) scale(0.1 -0.1)">
       <defs>
        <path id="DejaVuSans-38" d="M 2034 2216 
Q 1584 2216 1326 1975 
Q 1069 1734 1069 1313 
Q 1069 891 1326 650 
Q 1584 409 2034 409 
Q 2484 409 2743 651 
Q 3003 894 3003 1313 
Q 3003 1734 2745 1975 
Q 2488 2216 2034 2216 
z
M 1403 2484 
Q 997 2584 770 2862 
Q 544 3141 544 3541 
Q 544 4100 942 4425 
Q 1341 4750 2034 4750 
Q 2731 4750 3128 4425 
Q 3525 4100 3525 3541 
Q 3525 3141 3298 2862 
Q 3072 2584 2669 2484 
Q 3125 2378 3379 2068 
Q 3634 1759 3634 1313 
Q 3634 634 3220 271 
Q 2806 -91 2034 -91 
Q 1263 -91 848 271 
Q 434 634 434 1313 
Q 434 1759 690 2068 
Q 947 2378 1403 2484 
z
M 1172 3481 
Q 1172 3119 1398 2916 
Q 1625 2713 2034 2713 
Q 2441 2713 2670 2916 
Q 2900 3119 2900 3481 
Q 2900 3844 2670 4047 
Q 2441 4250 2034 4250 
Q 1625 4250 1398 4047 
Q 1172 3844 1172 3481 
z
" transform="scale(0.015625)"/>
       </defs>
       <use xlink:href="#DejaVuSans-38"/>
      </g>
     </g>
    </g>
    <g id="xtick_13">
     <g id="line2d_31">
      <g>
       <use xlink:href="#m9996c45564" x="558.482308" y="390.04" style="stroke: #000000; stroke-width: 0.8"/>
      </g>
     </g>
     <g id="text_17">
      <!-- 10 -->
      <g transform="translate(552.119808 404.638437) scale(0.1 -0.1)">
       <use xlink:href="#DejaVuSans-31"/>
       <use xlink:href="#DejaVuSans-30" transform="translate(63.623047 0)"/>
      </g>
     </g>
    </g>
    <g id="xtick_14">
     <g id="line2d_32">
      <g>
       <use xlink:href="#m9996c45564" x="658.960769" y="390.04" style="stroke: #000000; stroke-width: 0.8"/>
      </g>
     </g>
     <g id="text_18">
      <!-- 12 -->
      <g transform="translate(652.598269 404.638437) scale(0.1 -0.1)">
       <use xlink:href="#DejaVuSans-31"/>
       <use xlink:href="#DejaVuSans-32" transform="translate(63.623047 0)"/>
      </g>
     </g>
    </g>
    <g id="text_19">
     <!-- time (s) -->
     <g transform="translate(363.253594 418.316562) scale(0.1 -0.1)">
      <defs>
       <path id="DejaVuSans-28" d="M 1984 4856 
Q 1566 4138 1362 3434 
Q 1159 2731 1159 2009 
Q 1159 1288 1364 580 
Q 1569 -128 1984 -844 
L 1484 -844 
Q 1016 -109 783 600 
Q 550 1309 550 2009 
Q 550 2706 781 3412 
Q 1013 4119 1484 4856 
L 1984 4856 
z
" transform="scale(0.015625)"/>
       <path id="DejaVuSans-29" d="M 513 4856 
L 1013 4856 
Q 1481 4119 1714 3412 
Q 1947 2706 1947 2009 
Q 1947 1309 1714 600 
Q 1481 -109 1013 -844 
L 513 -844 
Q 928 -128 1133 580 
Q 1338 1288 1338 2009 
Q 1338 2731 1133 3434 
Q 928 4138 513 4856 
z
" transform="scale(0.015625)"/>
      </defs>
      <use xlink:href="#DejaVuSans-74"/>
      <use xlink:href="#DejaVuSans-69" transform="translate(39.208984 0)"/>
      <use xlink:href="#DejaVuSans-6d" transform="translate(66.992188 0)"/>
      <use xlink:href="#DejaVuSans-65" transform="translate(164.404297 0)"/>
      <use xlink:href="#DejaVuSans-20" transform="translate(225.927734 0)"/>
      <use xlink:href="#DejaVuSans-28" transform="translate(257.714844 0)"/>
      <use xlink:href="#DejaVuSans-73" transform="translate(296.728516 0)"/>
      <use xlink:href="#DejaVuSans-29" transform="translate(348.828125 0)"/>
     </g>
    </g>
   </g>
   <g id="matplotlib.axis_4">
    <g id="ytick_7">
     <g id="line2d_33">
      <path d="M 56.09 382.585358 
L 709.2 382.585358 
" clip-path="url(#p1321f1f1b8)" style="fill: none; stroke: #b0b0b0; stroke-opacity: 0.25; stroke-width: 0.8; stroke-linecap: square"/>
     </g>
     <g id="line2d_34">
      <g>
       <use xlink:href="#mb93b9de399" x="56.09" y="382.585358" style="stroke: #000000; stroke-width: 0.8"/>
      </g>
     </g>
     <g id="text_20">
      <!-- 0.0 -->
      <g transform="translate(33.186875 386.384577) scale(0.1 -0.1)">
       <use xlink:href="#DejaVuSans-30"/>
       <use xlink:href="#DejaVuSans-2e" transform="translate(63.623047 0)"/>
       <use xlink:href="#DejaVuSans-30" transform="translate(95.410156 0)"/>
      </g>
     </g>
    </g>
    <g id="ytick_8">
     <g id="line2d_35">
      <path d="M 56.09 354.153276 
L 709.2 354.153276 
" clip-path="url(#p1321f1f1b8)" style="fill: none; stroke: #b0b0b0; stroke-opacity: 0.25; stroke-width: 0.8; stroke-linecap: square"/>
     </g>
     <g id="line2d_36">
      <g>
       <use xlink:href="#mb93b9de399" x="56.09" y="354.153276" style="stroke: #000000; stroke-width: 0.8"/>
      </g>
     </g>
     <g id="text_21">
      <!-- 0.2 -->
      <g transform="translate(33.186875 357.952495) scale(0.1 -0.1)">
       <use xlink:href="#DejaVuSans-30"/>
       <use xlink:href="#DejaVuSans-2e" transform="translate(63.623047 0)"/>
       <use xlink:href="#DejaVuSans-32" transform="translate(95.410156 0)"/>
      </g>
     </g>
    </g>
    <g id="ytick_9">
     <g id="line2d_37">
      <path d="M 56.09 325.721194 
L 709.2 325.721194 
" clip-path="url(#p1321f1f1b8)" style="fill: none; stroke: #b0b0b0; stroke-opacity: 0.25; stroke-width: 0.8; stroke-linecap: square"/>
     </g>
     <g id="line2d_38">
      <g>
       <use xlink:href="#mb93b9de399" x="56.09" y="325.721194" style="stroke: #000000; stroke-width: 0.8"/>
      </g>
     </g>
     <g id="text_22">
      <!-- 0.4 -->
      <g transform="translate(33.186875 329.520413) scale(0.1 -0.1)">
       <use xlink:href="#DejaVuSans-30"/>
       <use xlink:href="#DejaVuSans-2e" transform="translate(63.623047 0)"/>
       <use xlink:href="#DejaVuSans-34" transform="translate(95.410156 0)"/>
      </g>
     </g>
    </g>
    <g id="ytick_10">
     <g id="line2d_39">
      <path d="M 56.09 297.289112 
L 709.2 297.289112 
" clip-path="url(#p1321f1f1b8)" style="fill: none; stroke: #b0b0b0; stroke-opacity: 0.25; stroke-width: 0.8; stroke-linecap: square"/>
     </g>
     <g id="line2d_40">
      <g>
       <use xlink:href="#mb93b9de399" x="56.09" y="297.289112" style="stroke: #000000; stroke-width: 0.8"/>
      </g>
     </g>
     <g id="text_23">
      <!-- 0.6 -->
      <g transform="translate(33.186875 301.088331) scale(0.1 -0.1)">
       <use xlink:href="#DejaVuSans-30"/>
       <use xlink:href="#DejaVuSans-2e" transform="translate(63.623047 0)"/>
       <use xlink:href="#DejaVuSans-36" transform="translate(95.410156 0)"/>
      </g>
     </g>
    </g>
    <g id="ytick_11">
     <g id="line2d_41">
      <path d="M 56.09 268.857031 
L 709.2 268.857031 
" clip-path="url(#p1321f1f1b8)" style="fill: none; stroke: #b0b0b0; stroke-opacity: 0.25; stroke-width: 0.8; stroke-linecap: square"/>
     </g>
     <g id="line2d_42">
      <g>
       <use xlink:href="#mb93b9de399" x="56.09" y="268.857031" style="stroke: #000000; stroke-width: 0.8"/>
      </g>
     </g>
     <g id="text_24">
      <!-- 0.8 -->
      <g transform="translate(33.186875 272.656249) scale(0.1 -0.1)">
       <use xlink:href="#DejaVuSans-30"/>
       <use xlink:href="#DejaVuSans-2e" transform="translate(63.623047 0)"/>
       <use xlink:href="#DejaVuSans-38" transform="translate(95.410156 0)"/>
      </g>
     </g>
    </g>
    <g id="ytick_12">
     <g id="line2d_43">
      <path d="M 56.09 240.424949 
L 709.2 240.424949 
" clip-path="url(#p1321f1f1b8)" style="fill: none; stroke: #b0b0b0; stroke-opacity: 0.25; stroke-width: 0.8; stroke-linecap: square"/>
     </g>
     <g id="line2d_44">
      <g>
       <use xlink:href="#mb93b9de399" x="56.09" y="240.424949" style="stroke: #000000; stroke-width: 0.8"/>
      </g>
     </g>
     <g id="text_25">
      <!-- 1.0 -->
      <g transform="translate(33.186875 244.224168) scale(0.1 -0.1)">
       <use xlink:href="#DejaVuSans-31"/>
       <use xlink:href="#DejaVuSans-2e" transform="translate(63.623047 0)"/>
       <use xlink:href="#DejaVuSans-30" transform="translate(95.410156 0)"/>
      </g>
     </g>
    </g>
    <g id="text_26">
     <!-- post-neutral xy speed (m/s) -->
     <g transform="translate(27.107187 376.228604) rotate(-90) scale(0.1 -0.1)">
      <defs>
       <path id="DejaVuSans-78" d="M 3513 3500 
L 2247 1797 
L 3578 0 
L 2900 0 
L 1881 1375 
L 863 0 
L 184 0 
L 1544 1831 
L 300 3500 
L 978 3500 
L 1906 2253 
L 2834 3500 
L 3513 3500 
z
" transform="scale(0.015625)"/>
       <path id="DejaVuSans-79" d="M 2059 -325 
Q 1816 -950 1584 -1140 
Q 1353 -1331 966 -1331 
L 506 -1331 
L 506 -850 
L 844 -850 
Q 1081 -850 1212 -737 
Q 1344 -625 1503 -206 
L 1606 56 
L 191 3500 
L 800 3500 
L 1894 763 
L 2988 3500 
L 3597 3500 
L 2059 -325 
z
" transform="scale(0.015625)"/>
       <path id="DejaVuSans-64" d="M 2906 2969 
L 2906 4863 
L 3481 4863 
L 3481 0 
L 2906 0 
L 2906 525 
Q 2725 213 2448 61 
Q 2172 -91 1784 -91 
Q 1150 -91 751 415 
Q 353 922 353 1747 
Q 353 2572 751 3078 
Q 1150 3584 1784 3584 
Q 2172 3584 2448 3432 
Q 2725 3281 2906 2969 
z
M 947 1747 
Q 947 1113 1208 752 
Q 1469 391 1925 391 
Q 2381 391 2643 752 
Q 2906 1113 2906 1747 
Q 2906 2381 2643 2742 
Q 2381 3103 1925 3103 
Q 1469 3103 1208 2742 
Q 947 2381 947 1747 
z
" transform="scale(0.015625)"/>
       <path id="DejaVuSans-2f" d="M 1625 4666 
L 2156 4666 
L 531 -594 
L 0 -594 
L 1625 4666 
z
" transform="scale(0.015625)"/>
      </defs>
      <use xlink:href="#DejaVuSans-70"/>
      <use xlink:href="#DejaVuSans-6f" transform="translate(63.476562 0)"/>
      <use xlink:href="#DejaVuSans-73" transform="translate(124.658203 0)"/>
      <use xlink:href="#DejaVuSans-74" transform="translate(176.757812 0)"/>
      <use xlink:href="#DejaVuSans-2d" transform="translate(215.966797 0)"/>
      <use xlink:href="#DejaVuSans-6e" transform="translate(252.050781 0)"/>
      <use xlink:href="#DejaVuSans-65" transform="translate(315.429688 0)"/>
      <use xlink:href="#DejaVuSans-75" transform="translate(376.953125 0)"/>
      <use xlink:href="#DejaVuSans-74" transform="translate(440.332031 0)"/>
      <use xlink:href="#DejaVuSans-72" transform="translate(479.541016 0)"/>
      <use xlink:href="#DejaVuSans-61" transform="translate(520.654297 0)"/>
      <use xlink:href="#DejaVuSans-6c" transform="translate(581.933594 0)"/>
      <use xlink:href="#DejaVuSans-20" transform="translate(609.716797 0)"/>
      <use xlink:href="#DejaVuSans-78" transform="translate(641.503906 0)"/>
      <use xlink:href="#DejaVuSans-79" transform="translate(700.683594 0)"/>
      <use xlink:href="#DejaVuSans-20" transform="translate(759.863281 0)"/>
      <use xlink:href="#DejaVuSans-73" transform="translate(791.650391 0)"/>
      <use xlink:href="#DejaVuSans-70" transform="translate(843.75 0)"/>
      <use xlink:href="#DejaVuSans-65" transform="translate(907.226562 0)"/>
      <use xlink:href="#DejaVuSans-65" transform="translate(968.75 0)"/>
      <use xlink:href="#DejaVuSans-64" transform="translate(1030.273438 0)"/>
      <use xlink:href="#DejaVuSans-20" transform="translate(1093.75 0)"/>
      <use xlink:href="#DejaVuSans-28" transform="translate(1125.537109 0)"/>
      <use xlink:href="#DejaVuSans-6d" transform="translate(1164.550781 0)"/>
      <use xlink:href="#DejaVuSans-2f" transform="translate(1261.962891 0)"/>
      <use xlink:href="#DejaVuSans-73" transform="translate(1295.654297 0)"/>
      <use xlink:href="#DejaVuSans-29" transform="translate(1347.753906 0)"/>
     </g>
    </g>
   </g>
   <g id="line2d_45">
    <path d="M 57.094785 380.19054 
L 61.113923 380.20521 
L 64.128277 380.112985 
L 67.142631 380.188747 
L 75.180908 380.020433 
L 77.190477 380.002482 
L 80.204831 379.85241 
L 91.257462 379.261335 
L 92.262246 379.05511 
L 97.286169 378.981254 
L 100.300523 378.787328 
L 102.310092 378.739339 
L 115.372292 378.821242 
L 117.381862 378.73705 
L 122.405785 379.016323 
L 129.439277 378.75528 
L 132.453631 378.775445 
L 134.4632 378.63573 
L 138.482338 378.507551 
L 150.539754 378.605165 
L 153.554108 378.836802 
L 155.563677 378.832125 
L 157.573246 379.020601 
L 165.611523 379.586024 
L 166.616308 379.55136 
L 174.654585 380.196736 
L 180.683292 380.380885 
L 183.697646 380.461709 
L 188.721569 380.417853 
L 191.735923 380.579014 
L 195.755062 380.852185 
L 200.778985 380.894117 
L 202.788554 380.886137 
L 204.798123 381.015329 
L 209.822046 380.740122 
L 210.826831 380.809594 
L 211.831615 380.73098 
L 215.850754 379.6339 
L 219.869892 377.894991 
L 222.884246 376.9921 
L 224.893815 376.147597 
L 225.8986 375.774659 
L 226.903385 375.541825 
L 227.908169 375.157097 
L 228.912954 374.89616 
L 229.917738 374.480597 
L 230.922523 374.295223 
L 231.927308 373.931816 
L 234.941662 373.30867 
L 235.946446 372.970547 
L 236.951231 372.752636 
L 238.9608 371.892044 
L 239.965585 371.059194 
L 240.970369 370.383149 
L 241.975154 368.888904 
L 242.979938 367.810993 
L 244.989508 365.876916 
L 246.999077 360.18823 
L 251.018215 350.670502 
L 253.027785 347.801852 
L 255.037354 342.921816 
L 256.042138 340.933606 
L 259.056492 333.286405 
L 260.061277 331.51392 
L 261.066062 328.862255 
L 262.070846 327.105842 
L 263.075631 324.492487 
L 265.0852 322.860082 
L 266.089985 320.296876 
L 268.099554 317.704133 
L 270.109123 314.305715 
L 271.113908 311.797136 
L 272.118692 310.072565 
L 273.123477 307.695783 
L 274.128262 306.124026 
L 276.137831 301.341004 
L 278.1474 298.191465 
L 279.152185 295.892876 
L 280.156969 294.243009 
L 282.166538 291.917022 
L 283.171323 290.416867 
L 284.176108 286.477273 
L 286.185677 284.073017 
L 287.190462 282.521561 
L 288.195246 280.252556 
L 289.200031 278.817281 
L 290.204815 276.491494 
L 291.2096 274.841764 
L 292.214385 272.511028 
L 293.219169 270.99594 
L 294.223954 267.214215 
L 296.233523 264.99587 
L 297.238308 263.450715 
L 298.243092 261.13063 
L 299.247877 257.439501 
L 301.257446 256.041751 
L 302.262231 253.877478 
L 303.267015 252.353903 
L 305.276585 248.06876 
L 306.281369 246.656058 
L 307.286154 244.567434 
L 308.290938 243.204151 
L 309.295723 241.225564 
L 310.300508 239.952732 
L 311.305292 237.977134 
L 312.310077 236.744397 
L 313.314862 235.012455 
L 314.319646 234.007808 
L 315.324431 232.688913 
L 316.329215 231.980935 
L 317.334 231.537496 
L 318.338785 231.299707 
L 319.343569 231.652415 
L 320.348354 232.148457 
L 322.357923 234.379473 
L 324.367492 235.715736 
L 326.377062 242.887638 
L 328.386631 248.444305 
L 332.405769 261.177158 
L 334.415338 263.680457 
L 336.424908 273.813204 
L 340.444046 286.048216 
L 342.453615 288.427821 
L 343.4584 291.940752 
L 344.463185 294.288393 
L 345.467969 297.588734 
L 346.472754 299.866093 
L 347.477538 303.216343 
L 348.482323 305.322044 
L 349.487108 308.48615 
L 350.491892 310.618667 
L 351.496677 313.833828 
L 352.501462 315.970336 
L 353.506246 319.076405 
L 354.511031 321.17077 
L 355.515815 324.242025 
L 356.5206 326.285569 
L 358.530169 332.047121 
L 360.539738 335.745836 
L 361.544523 338.507884 
L 362.549308 340.32795 
L 363.554092 342.917058 
L 364.558877 344.61735 
L 366.568446 349.754254 
L 368.578015 352.869041 
L 369.5828 355.158429 
L 370.587585 356.661707 
L 371.592369 358.673409 
L 372.597154 359.999668 
L 373.601938 361.823099 
L 374.606723 363.147476 
L 375.611508 365.09927 
L 376.616292 366.323146 
L 377.621077 367.840194 
L 378.625862 368.880765 
L 379.630646 370.337386 
L 380.635431 371.218356 
L 381.640215 372.54893 
L 382.645 373.388048 
L 383.649785 374.453513 
L 384.654569 375.226572 
L 385.659354 376.296499 
L 389.678492 378.708503 
L 391.688062 379.540129 
L 396.711985 380.421967 
L 401.735908 380.760794 
L 402.740692 381.026045 
L 405.755046 381.414669 
L 406.759831 381.638196 
L 409.774185 381.979208 
L 411.783754 382.480938 
L 414.798108 382.105358 
L 415.802892 381.913946 
L 416.807677 381.454121 
L 419.822031 381.118688 
L 421.8316 380.774783 
L 422.836385 380.465354 
L 425.850738 380.024012 
L 426.855523 379.78708 
L 430.874662 379.477276 
L 432.884231 379.142381 
L 438.912938 378.502455 
L 441.927292 378.410908 
L 445.946431 378.028194 
L 447.956 378.044662 
L 450.970354 377.812785 
L 452.979923 377.749491 
L 453.984708 377.742797 
L 455.994277 377.87156 
L 462.022985 377.786902 
L 466.042123 378.028195 
L 467.046908 377.947467 
L 470.061262 378.167021 
L 474.0804 378.231313 
L 475.085185 378.488945 
L 478.099538 378.863722 
L 479.104323 379.061789 
L 481.113892 379.104544 
L 482.118677 379.177389 
L 483.123462 379.367433 
L 484.128246 379.399308 
L 485.133031 379.623754 
L 489.152169 379.938432 
L 490.156954 379.933515 
L 493.171308 380.29817 
L 503.219154 380.510083 
L 505.228723 380.279007 
L 514.271785 379.887095 
L 515.276569 379.833726 
L 516.281354 379.611605 
L 517.286138 379.533303 
L 518.290923 379.341342 
L 521.305277 379.099147 
L 523.314846 378.922104 
L 525.324415 378.584215 
L 531.353123 377.931645 
L 533.362692 377.733135 
L 539.3914 377.258943 
L 541.400969 377.217887 
L 545.420108 376.86593 
L 546.424892 376.686018 
L 548.434462 376.654497 
L 559.487092 375.80027 
L 561.496662 375.676853 
L 563.506231 375.35679 
L 572.549292 375.303346 
L 574.558862 375.344501 
L 575.563646 375.392531 
L 579.582785 375.290448 
L 581.592354 375.468612 
L 587.621062 375.196362 
L 589.630631 375.282438 
L 593.649769 375.411512 
L 596.664123 375.27566 
L 597.668908 375.338107 
L 601.688046 375.161068 
L 603.697615 375.292916 
L 605.707185 375.250428 
L 625.802877 376.464474 
L 626.807662 376.485117 
L 627.812446 376.64813 
L 628.817231 376.584694 
L 631.831585 376.709489 
L 635.850723 376.922877 
L 636.855508 376.896069 
L 640.874646 377.265614 
L 646.903354 377.641023 
L 647.908138 377.842894 
L 652.932062 378.30209 
L 656.9512 378.48725 
L 659.965554 378.783875 
L 661.975123 379.208544 
L 677.046892 380.293346 
L 679.056462 380.218865 
L 685.085169 380.510064 
L 686.089954 380.624402 
L 689.104308 381.187927 
L 691.113877 381.2727 
L 693.123446 381.475592 
L 702.166508 381.749517 
L 705.180862 381.61878 
L 708.195215 381.754742 
L 709.2 380.325499 
L 709.2 380.325499 
" clip-path="url(#p1321f1f1b8)" style="fill: none; stroke: #b00020; stroke-width: 2; stroke-linecap: square"/>
   </g>
   <g id="line2d_46">
    <path d="M 56.09 240.424949 
L 709.2 240.424949 
" clip-path="url(#p1321f1f1b8)" style="fill: none; stroke-dasharray: 4.44,1.92; stroke-dashoffset: 0; stroke: #222222; stroke-width: 1.2"/>
   </g>
   <g id="line2d_47">
    <path d="M 307.286154 390.04 
L 307.286154 223.740645 
" clip-path="url(#p1321f1f1b8)" style="fill: none; stroke-dasharray: 3.7,1.6; stroke-dashoffset: 0; stroke: #222222"/>
   </g>
   <g id="patch_9">
    <path d="M 56.09 390.04 
L 56.09 223.740645 
" style="fill: none; stroke: #000000; stroke-width: 0.8; stroke-linejoin: miter; stroke-linecap: square"/>
   </g>
   <g id="patch_10">
    <path d="M 709.2 390.04 
L 709.2 223.740645 
" style="fill: none; stroke: #000000; stroke-width: 0.8; stroke-linejoin: miter; stroke-linecap: square"/>
   </g>
   <g id="patch_11">
    <path d="M 56.09 390.04 
L 709.2 390.04 
" style="fill: none; stroke: #000000; stroke-width: 0.8; stroke-linejoin: miter; stroke-linecap: square"/>
   </g>
   <g id="patch_12">
    <path d="M 56.09 223.740645 
L 709.2 223.740645 
" style="fill: none; stroke: #000000; stroke-width: 0.8; stroke-linejoin: miter; stroke-linecap: square"/>
   </g>
   <g id="PathCollection_1">
    <defs>
     <path id="mb40921567e" d="M 0 3 
C 0.795609 3 1.55874 2.683901 2.12132 2.12132 
C 2.683901 1.55874 3 0.795609 3 0 
C 3 -0.795609 2.683901 -1.55874 2.12132 -2.12132 
C 1.55874 -2.683901 0.795609 -3 0 -3 
C -0.795609 -3 -1.55874 -2.683901 -2.12132 -2.12132 
C -2.683901 -1.55874 -3 -0.795609 -3 0 
C -3 0.795609 -2.683901 1.55874 -2.12132 2.12132 
C -1.55874 2.683901 -0.795609 3 0 3 
z
" style="stroke: #b00020"/>
    </defs>
    <g clip-path="url(#p1321f1f1b8)">
     <use xlink:href="#mb40921567e" x="318.338785" y="231.299707" style="fill: #b00020; stroke: #b00020"/>
    </g>
   </g>
   <g id="patch_13">
    <path d="M 339.482496 227.857207 
Q 329.89788 229.41772 321.196067 230.8345 
" style="fill: none; stroke: #000000; stroke-width: 0.8; stroke-linecap: round"/>
    <path d="M 325.038537 232.032592 
L 321.196067 230.8345 
L 324.460023 228.47938 
" style="fill: none; stroke: #000000; stroke-width: 0.8; stroke-linecap: round"/>
   </g>
   <g id="text_27">
    <!-- max 1.064 m/s -->
    <g transform="translate(343.4584 224.191686) scale(0.09 -0.09)">
     <use xlink:href="#DejaVuSans-6d"/>
     <use xlink:href="#DejaVuSans-61" transform="translate(97.412109 0)"/>
     <use xlink:href="#DejaVuSans-78" transform="translate(158.691406 0)"/>
     <use xlink:href="#DejaVuSans-20" transform="translate(217.871094 0)"/>
     <use xlink:href="#DejaVuSans-31" transform="translate(249.658203 0)"/>
     <use xlink:href="#DejaVuSans-2e" transform="translate(313.28125 0)"/>
     <use xlink:href="#DejaVuSans-30" transform="translate(345.068359 0)"/>
     <use xlink:href="#DejaVuSans-36" transform="translate(408.691406 0)"/>
     <use xlink:href="#DejaVuSans-34" transform="translate(472.314453 0)"/>
     <use xlink:href="#DejaVuSans-20" transform="translate(535.9375 0)"/>
     <use xlink:href="#DejaVuSans-6d" transform="translate(567.724609 0)"/>
     <use xlink:href="#DejaVuSans-2f" transform="translate(665.136719 0)"/>
     <use xlink:href="#DejaVuSans-73" transform="translate(698.828125 0)"/>
    </g>
   </g>
   <g id="text_28">
    <!-- rho=-0.049, std=0.012, rho+2sigma=-0.025; channel=roll, support=4 -->
    <g transform="translate(170.418437 217.740645) scale(0.12 -0.12)">
     <defs>
      <path id="DejaVuSans-3d" d="M 678 2906 
L 4684 2906 
L 4684 2381 
L 678 2381 
L 678 2906 
z
M 678 1631 
L 4684 1631 
L 4684 1100 
L 678 1100 
L 678 1631 
z
" transform="scale(0.015625)"/>
      <path id="DejaVuSans-39" d="M 703 97 
L 703 672 
Q 941 559 1184 500 
Q 1428 441 1663 441 
Q 2288 441 2617 861 
Q 2947 1281 2994 2138 
Q 2813 1869 2534 1725 
Q 2256 1581 1919 1581 
Q 1219 1581 811 2004 
Q 403 2428 403 3163 
Q 403 3881 828 4315 
Q 1253 4750 1959 4750 
Q 2769 4750 3195 4129 
Q 3622 3509 3622 2328 
Q 3622 1225 3098 567 
Q 2575 -91 1691 -91 
Q 1453 -91 1209 -44 
Q 966 3 703 97 
z
M 1959 2075 
Q 2384 2075 2632 2365 
Q 2881 2656 2881 3163 
Q 2881 3666 2632 3958 
Q 2384 4250 1959 4250 
Q 1534 4250 1286 3958 
Q 1038 3666 1038 3163 
Q 1038 2656 1286 2365 
Q 1534 2075 1959 2075 
z
" transform="scale(0.015625)"/>
      <path id="DejaVuSans-2b" d="M 2944 4013 
L 2944 2272 
L 4684 2272 
L 4684 1741 
L 2944 1741 
L 2944 0 
L 2419 0 
L 2419 1741 
L 678 1741 
L 678 2272 
L 2419 2272 
L 2419 4013 
L 2944 4013 
z
" transform="scale(0.015625)"/>
      <path id="DejaVuSans-3b" d="M 750 3309 
L 1409 3309 
L 1409 2516 
L 750 2516 
L 750 3309 
z
M 750 794 
L 1409 794 
L 1409 256 
L 897 -744 
L 494 -744 
L 750 256 
L 750 794 
z
" transform="scale(0.015625)"/>
     </defs>
     <use xlink:href="#DejaVuSans-72"/>
     <use xlink:href="#DejaVuSans-68" transform="translate(39.363281 0)"/>
     <use xlink:href="#DejaVuSans-6f" transform="translate(102.742188 0)"/>
     <use xlink:href="#DejaVuSans-3d" transform="translate(163.923828 0)"/>
     <use xlink:href="#DejaVuSans-2d" transform="translate(247.712891 0)"/>
     <use xlink:href="#DejaVuSans-30" transform="translate(283.796875 0)"/>
     <use xlink:href="#DejaVuSans-2e" transform="translate(347.419922 0)"/>
     <use xlink:href="#DejaVuSans-30" transform="translate(379.207031 0)"/>
     <use xlink:href="#DejaVuSans-34" transform="translate(442.830078 0)"/>
     <use xlink:href="#DejaVuSans-39" transform="translate(506.453125 0)"/>
     <use xlink:href="#DejaVuSans-2c" transform="translate(570.076172 0)"/>
     <use xlink:href="#DejaVuSans-20" transform="translate(601.863281 0)"/>
     <use xlink:href="#DejaVuSans-73" transform="translate(633.650391 0)"/>
     <use xlink:href="#DejaVuSans-74" transform="translate(685.75 0)"/>
     <use xlink:href="#DejaVuSans-64" transform="translate(724.958984 0)"/>
     <use xlink:href="#DejaVuSans-3d" transform="translate(788.435547 0)"/>
     <use xlink:href="#DejaVuSans-30" transform="translate(872.224609 0)"/>
     <use xlink:href="#DejaVuSans-2e" transform="translate(935.847656 0)"/>
     <use xlink:href="#DejaVuSans-30" transform="translate(967.634766 0)"/>
     <use xlink:href="#DejaVuSans-31" transform="translate(1031.257812 0)"/>
     <use xlink:href="#DejaVuSans-32" transform="translate(1094.880859 0)"/>
     <use xlink:href="#DejaVuSans-2c" transform="translate(1158.503906 0)"/>
     <use xlink:href="#DejaVuSans-20" transform="translate(1190.291016 0)"/>
     <use xlink:href="#DejaVuSans-72" transform="translate(1222.078125 0)"/>
     <use xlink:href="#DejaVuSans-68" transform="translate(1261.441406 0)"/>
     <use xlink:href="#DejaVuSans-6f" transform="translate(1324.820312 0)"/>
     <use xlink:href="#DejaVuSans-2b" transform="translate(1386.001953 0)"/>
     <use xlink:href="#DejaVuSans-32" transform="translate(1469.791016 0)"/>
     <use xlink:href="#DejaVuSans-73" transform="translate(1533.414062 0)"/>
     <use xlink:href="#DejaVuSans-69" transform="translate(1585.513672 0)"/>
     <use xlink:href="#DejaVuSans-67" transform="translate(1613.296875 0)"/>
     <use xlink:href="#DejaVuSans-6d" transform="translate(1676.773438 0)"/>
     <use xlink:href="#DejaVuSans-61" transform="translate(1774.185547 0)"/>
     <use xlink:href="#DejaVuSans-3d" transform="translate(1835.464844 0)"/>
     <use xlink:href="#DejaVuSans-2d" transform="translate(1919.253906 0)"/>
     <use xlink:href="#DejaVuSans-30" transform="translate(1955.337891 0)"/>
     <use xlink:href="#DejaVuSans-2e" transform="translate(2018.960938 0)"/>
     <use xlink:href="#DejaVuSans-30" transform="translate(2050.748047 0)"/>
     <use xlink:href="#DejaVuSans-32" transform="translate(2114.371094 0)"/>
     <use xlink:href="#DejaVuSans-35" transform="translate(2177.994141 0)"/>
     <use xlink:href="#DejaVuSans-3b" transform="translate(2241.617188 0)"/>
     <use xlink:href="#DejaVuSans-20" transform="translate(2275.308594 0)"/>
     <use xlink:href="#DejaVuSans-63" transform="translate(2307.095703 0)"/>
     <use xlink:href="#DejaVuSans-68" transform="translate(2362.076172 0)"/>
     <use xlink:href="#DejaVuSans-61" transform="translate(2425.455078 0)"/>
     <use xlink:href="#DejaVuSans-6e" transform="translate(2486.734375 0)"/>
     <use xlink:href="#DejaVuSans-6e" transform="translate(2550.113281 0)"/>
     <use xlink:href="#DejaVuSans-65" transform="translate(2613.492188 0)"/>
     <use xlink:href="#DejaVuSans-6c" transform="translate(2675.015625 0)"/>
     <use xlink:href="#DejaVuSans-3d" transform="translate(2702.798828 0)"/>
     <use xlink:href="#DejaVuSans-72" transform="translate(2786.587891 0)"/>
     <use xlink:href="#DejaVuSans-6f" transform="translate(2825.451172 0)"/>
     <use xlink:href="#DejaVuSans-6c" transform="translate(2886.632812 0)"/>
     <use xlink:href="#DejaVuSans-6c" transform="translate(2914.416016 0)"/>
     <use xlink:href="#DejaVuSans-2c" transform="translate(2942.199219 0)"/>
     <use xlink:href="#DejaVuSans-20" transform="translate(2973.986328 0)"/>
     <use xlink:href="#DejaVuSans-73" transform="translate(3005.773438 0)"/>
     <use xlink:href="#DejaVuSans-75" transform="translate(3057.873047 0)"/>
     <use xlink:href="#DejaVuSans-70" transform="translate(3121.251953 0)"/>
     <use xlink:href="#DejaVuSans-70" transform="translate(3184.728516 0)"/>
     <use xlink:href="#DejaVuSans-6f" transform="translate(3248.205078 0)"/>
     <use xlink:href="#DejaVuSans-72" transform="translate(3309.386719 0)"/>
     <use xlink:href="#DejaVuSans-74" transform="translate(3350.5 0)"/>
     <use xlink:href="#DejaVuSans-3d" transform="translate(3389.708984 0)"/>
     <use xlink:href="#DejaVuSans-34" transform="translate(3473.498047 0)"/>
    </g>
   </g>
   <g id="legend_2">
    <g id="patch_14">
     <path d="M 607.86625 241.883145 
L 703.6 241.883145 
Q 705.2 241.883145 705.2 240.283145 
L 705.2 229.340645 
Q 705.2 227.740645 703.6 227.740645 
L 607.86625 227.740645 
Q 606.26625 227.740645 606.26625 229.340645 
L 606.26625 240.283145 
Q 606.26625 241.883145 607.86625 241.883145 
z
" style="fill: #ffffff; opacity: 0.8; stroke: #cccccc; stroke-linejoin: miter"/>
    </g>
    <g id="line2d_48">
     <path d="M 609.46625 234.219395 
L 617.46625 234.219395 
L 625.46625 234.219395 
" style="fill: none; stroke-dasharray: 4.44,1.92; stroke-dashoffset: 0; stroke: #222222; stroke-width: 1.2"/>
    </g>
    <g id="text_29">
     <!-- 1.0 m/s threshold -->
     <g transform="translate(631.86625 237.019395) scale(0.08 -0.08)">
      <use xlink:href="#DejaVuSans-31"/>
      <use xlink:href="#DejaVuSans-2e" transform="translate(63.623047 0)"/>
      <use xlink:href="#DejaVuSans-30" transform="translate(95.410156 0)"/>
      <use xlink:href="#DejaVuSans-20" transform="translate(159.033203 0)"/>
      <use xlink:href="#DejaVuSans-6d" transform="translate(190.820312 0)"/>
      <use xlink:href="#DejaVuSans-2f" transform="translate(288.232422 0)"/>
      <use xlink:href="#DejaVuSans-73" transform="translate(321.923828 0)"/>
      <use xlink:href="#DejaVuSans-20" transform="translate(374.023438 0)"/>
      <use xlink:href="#DejaVuSans-74" transform="translate(405.810547 0)"/>
      <use xlink:href="#DejaVuSans-68" transform="translate(445.019531 0)"/>
      <use xlink:href="#DejaVuSans-72" transform="translate(508.398438 0)"/>
      <use xlink:href="#DejaVuSans-65" transform="translate(547.261719 0)"/>
      <use xlink:href="#DejaVuSans-73" transform="translate(608.785156 0)"/>
      <use xlink:href="#DejaVuSans-68" transform="translate(660.884766 0)"/>
      <use xlink:href="#DejaVuSans-6f" transform="translate(724.263672 0)"/>
      <use xlink:href="#DejaVuSans-6c" transform="translate(785.445312 0)"/>
      <use xlink:href="#DejaVuSans-64" transform="translate(813.228516 0)"/>
     </g>
    </g>
   </g>
  </g>
 </g>
 <defs>
  <clipPath id="pfd11c09a17">
   <rect x="56.09" y="26.88" width="653.11" height="166.299355"/>
  </clipPath>
  <clipPath id="p1321f1f1b8">
   <rect x="56.09" y="223.740645" width="653.11" height="166.299355"/>
  </clipPath>
 </defs>
</svg>
